<?xml version="1.0" standalone="no"?><!DOCTYPE svg PUBLIC "-//W3C//DTD SVG 1.1//EN" "http://www.w3.org/Graphics/SVG/1.1/DTD/svg11.dtd"><svg t="1630511851633" class="icon" viewBox="0 0 1024 1024" version="1.1" xmlns="http://www.w3.org/2000/svg" p-id="7890" xmlns:xlink="http://www.w3.org/1999/xlink" width="200" height="200"><defs><style type="text/css"></style></defs><path d="M528 64a32 32 0 0 1 32 32v368h368a32 32 0 0 1 32 32v32a32 32 0 0 1-32 32H560v368a32 32 0 0 1-32 32h-32a32 32 0 0 1-32-32V559.936L96 560a32 32 0 0 1-32-32v-32a32 32 0 0 1 32-32l368-0.064V96a32 32 0 0 1 32-32h32z" fill="#000000" p-id="7891"></path></svg>