<?xml version="1.0" standalone="no"?><!DOCTYPE svg PUBLIC "-//W3C//DTD SVG 1.1//EN" "http://www.w3.org/Graphics/SVG/1.1/DTD/svg11.dtd"><svg t="1630555546623" class="icon" viewBox="0 0 1024 1024" version="1.1" xmlns="http://www.w3.org/2000/svg" p-id="9537" xmlns:xlink="http://www.w3.org/1999/xlink" width="200" height="200"><defs><style type="text/css"></style></defs><path d="M940.27776 492.88533333l-409.6-409.6c-16.384-16.384-39.15776-26.37824-64.17066667-26.37824H147.89290667c-50.02581333 0-90.98581333 40.96-90.98581334 91.04042667v318.55957333c0 25.01290667 9.99424 47.78666667 26.81514667 64.60757334l409.6 409.6c16.384 16.384 39.15776 26.43285333 64.17066667 26.43285333a89.01973333 89.01973333 0 0 0 64.17066666-26.86976l318.61418667-318.55957333c16.82090667-16.384 26.81514667-39.15776 26.81514667-64.17066667 0-25.06752-10.43114667-48.27818667-26.81514667-64.66218667z m-382.78485333 383.65866667l-409.6-410.03690667V147.94752h318.61418666v-0.49152l409.6 409.6-318.61418666 319.488zM261.70709333 193.44042667a68.26666667 68.26666667 0 1 0 0 136.53333333 68.26666667 68.26666667 0 0 0 0-136.53333333z" p-id="9538"></path></svg>